<?xml version="1.0" standalone="no"?>
<!DOCTYPE svg PUBLIC "-//W3C//DTD SVG 20010904//EN"
 "http://www.w3.org/TR/2001/REC-SVG-20010904/DTD/svg10.dtd">
<svg version="1.0" xmlns="http://www.w3.org/2000/svg" viewBox="-78.000 -0.000 556.000 556.000"
 preserveAspectRatio="xMidYMid meet">
<metadata>
Created by potrace 1.16, written by Peter Selinger 2001-2019
</metadata>
<g transform="translate(0.000000,556.000000) scale(0.100000,-0.100000)"
fill="currentColor" stroke="none">
<path d="M522 5173 c-28 -113 -47 -238 -69 -438 -22 -205 -26 -940 -5 -1075
38 -251 90 -432 242 -840 95 -256 138 -382 172 -505 21 -78 22 -100 28 -820 6
-738 6 -740 29 -805 78 -222 235 -368 443 -415 64 -14 150 -16 668 -13 l595 3
83 32 c186 72 312 202 373 388 23 70 23 72 29 805 6 717 7 737 28 815 38 136
77 251 175 515 111 300 148 413 187 572 61 249 65 296 65 743 0 261 -5 457
-13 540 -20 200 -52 408 -76 498 l-22 82 -1456 3 -1455 2 -21 -87z m2765 -228
c36 -233 47 -423 48 -805 0 -361 -1 -393 -23 -515 -32 -178 -95 -388 -192
-650 -109 -294 -176 -489 -208 -610 l-26 -100 -6 -735 -6 -735 -23 -58 c-29
-74 -86 -145 -147 -185 -95 -60 -113 -62 -696 -62 -352 0 -545 4 -580 11 -160
34 -275 156 -298 316 -5 39 -10 346 -10 714 0 707 -1 720 -61 927 -16 57 -54
172 -85 255 -302 821 -322 917 -311 1509 6 337 34 691 63 791 5 16 72 17 1277
15 l1272 -3 12 -80z"/>
<path d="M890 4023 c1 -361 36 -521 240 -1068 112 -302 157 -440 192 -597 21
-89 22 -127 27 -813 7 -800 3 -762 74 -805 31 -19 54 -20 572 -20 596 0 582
-1 629 63 21 28 21 40 27 755 l5 727 27 110 c40 163 79 284 177 545 211 566
239 685 247 1053 l5 237 -826 0 -826 0 0 -87 c0 -274 33 -557 101 -886 123
-591 152 -760 161 -932 l3 -60 -40 0 -39 0 -18 120 c-26 177 -68 331 -184 687
-162 494 -197 662 -210 1011 l-6 147 -169 0 -169 0 0 -187z m1455 -153 c42
-16 75 -59 75 -97 0 -106 -116 -155 -191 -81 -50 50 -35 138 30 173 31 17 51
18 86 5z m93 -825 c103 -86 -13 -246 -128 -178 -63 37 -72 119 -19 172 41 41
103 43 147 6z m-266 -692 c24 -22 23 -74 -3 -107 -16 -20 -29 -26 -57 -26 -69
1 -105 55 -76 115 26 55 87 63 136 18z m-438 -628 c64 -59 -1 -163 -84 -134
-36 13 -64 60 -54 92 20 66 89 88 138 42z m409 -357 c54 -28 63 -89 21 -132
-65 -64 -165 4 -130 88 22 52 63 69 109 44z"/>
</g>
</svg>
