<?xml version="1.0" standalone="no"?>
<!DOCTYPE svg PUBLIC "-//W3C//DTD SVG 20010904//EN"
 "http://www.w3.org/TR/2001/REC-SVG-20010904/DTD/svg10.dtd">
<svg version="1.0" xmlns="http://www.w3.org/2000/svg" viewBox="-0.000 -36.000 650.000 650.000"
 preserveAspectRatio="xMidYMid meet">
<metadata>
Created by potrace 1.16, written by Peter Selinger 2001-2019
</metadata>
<g transform="translate(0.000000,578.000000) scale(0.100000,-0.100000)"
fill="currentColor" stroke="none">
<path d="M1345 5446 c-16 -7 -74 -58 -127 -113 -85 -87 -98 -105 -98 -134 0
-19 8 -46 18 -60 9 -15 344 -369 744 -787 505 -527 735 -761 752 -764 67 -13
126 30 126 91 -1 20 -6 46 -13 57 -7 12 -318 341 -692 733 -374 391 -680 716
-680 723 0 7 5 13 11 13 12 0 3114 -2923 3114 -2934 0 -3 -39 -45 -86 -91
l-85 -85 -108 112 c-61 63 -120 115 -134 118 -36 9 -92 -11 -111 -40 -9 -13
-16 -40 -16 -59 0 -40 10 -53 174 -226 60 -63 119 -131 131 -150 13 -19 290
-301 617 -627 641 -639 610 -612 706 -598 43 6 57 17 209 168 179 176 191 196
179 284 -8 48 -10 50 -609 651 -331 332 -611 607 -622 612 -11 4 -749 696
-1641 1536 -892 841 -1632 1539 -1646 1551 -31 29 -75 37 -113 19z m3873
-3859 l542 -542 -103 -103 -102 -102 -545 545 -545 545 100 100 c55 55 102
100 105 100 3 0 249 -244 548 -543z"/>
<path d="M2310 3438 c-766 -49 -1362 -714 -1327 -1482 41 -924 920 -1566 1807
-1320 490 136 864 510 1004 1004 43 154 59 405 35 563 -47 314 -182 589 -398
810 -297 306 -686 453 -1121 425z m287 -213 c485 -79 883 -438 1003 -905 124
-483 -61 -996 -467 -1297 -360 -267 -858 -311 -1258 -111 -364 182 -613 514
-676 903 -14 89 -14 300 0 386 85 508 477 920 966 1013 44 8 89 17 100 19 48
11 248 6 332 -8z"/>
<path d="M2187 2900 c-337 -40 -603 -283 -674 -613 -18 -87 -12 -261 12 -352
9 -33 37 -103 62 -155 40 -82 60 -108 142 -190 73 -72 116 -105 176 -137 241
-126 511 -121 754 13 80 45 231 194 280 277 93 158 125 379 82 559 -93 391
-446 643 -834 598z m211 -215 c104 -25 198 -79 277 -159 225 -229 217 -580
-18 -803 -114 -108 -228 -154 -383 -154 -163 0 -285 51 -405 171 -86 86 -131
165 -154 275 -18 88 -19 142 0 230 44 210 217 392 417 441 72 17 190 17 266
-1z"/>
<path d="M2234 2467 c-44 -25 -223 -201 -233 -228 -17 -50 11 -111 59 -128 31
-10 81 -1 106 20 12 10 14 -8 14 -120 0 -184 18 -221 108 -221 29 0 46 7 66
26 l26 27 0 289 0 290 -29 29 c-32 32 -79 38 -117 16z"/>
<path d="M3353 2108 c-52 -14 -69 -45 -76 -145 -25 -334 -230 -622 -535 -751
-80 -34 -197 -62 -264 -62 -114 -1 -174 -42 -165 -113 7 -48 39 -85 84 -93 47
-9 212 13 312 42 267 78 486 249 631 493 82 138 140 342 140 494 0 66 -3 79
-25 105 -28 34 -56 42 -102 30z"/>
</g>
</svg>
