<?xml version="1.0" standalone="no"?>
<!DOCTYPE svg PUBLIC "-//W3C//DTD SVG 20010904//EN"
 "http://www.w3.org/TR/2001/REC-SVG-20010904/DTD/svg10.dtd">
<svg version="1.0" xmlns="http://www.w3.org/2000/svg" viewBox="-142.000 -0.000 572.000 572.000"
 preserveAspectRatio="xMidYMid meet">
<metadata>
Created by potrace 1.16, written by Peter Selinger 2001-2019
</metadata>
<g transform="translate(0.000000,572.000000) scale(0.100000,-0.100000)"
fill="currentColor" stroke="none">
<path d="M1395 5405 c-164 -44 -280 -145 -360 -310 -49 -102 -74 -200 -82
-326 -8 -120 11 -231 67 -399 73 -219 85 -286 85 -485 0 -244 -26 -326 -174
-560 -285 -450 -380 -865 -342 -1480 32 -510 130 -951 296 -1338 l37 -87 598
0 597 0 31 68 c138 299 243 717 288 1147 21 200 24 638 6 775 -48 357 -149
628 -350 939 -68 105 -113 203 -138 296 -15 56 -19 105 -19 245 0 156 3 187
27 280 15 58 40 143 57 188 54 146 66 213 65 367 -2 164 -21 250 -85 383 -74
154 -222 275 -368 302 -73 14 -176 12 -236 -5z m250 -199 c56 -24 123 -82 160
-140 102 -162 121 -382 49 -594 l-28 -82 -307 0 -308 0 -30 93 c-36 114 -46
217 -32 322 29 211 124 357 265 407 61 22 170 19 231 -6z m121 -1028 c-3 -13
-11 -67 -17 -120 l-12 -98 -218 0 -217 0 -7 68 c-4 37 -11 85 -16 107 -5 22
-9 46 -9 53 0 9 57 12 251 12 l251 0 -6 -22z m-22 -435 c3 -16 8 -48 12 -73
18 -127 87 -288 189 -445 117 -180 216 -398 260 -575 98 -387 77 -1009 -51
-1533 -34 -140 -111 -384 -145 -464 l-18 -43 -473 0 -474 0 -12 33 c-250 640
-330 1477 -192 2017 45 176 134 371 257 565 120 188 157 277 188 448 l17 97
218 0 218 0 6 -27z"/>
</g>
</svg>
