<?xml version="1.0" standalone="no"?>
<!DOCTYPE svg PUBLIC "-//W3C//DTD SVG 20010904//EN"
 "http://www.w3.org/TR/2001/REC-SVG-20010904/DTD/svg10.dtd">
<svg version="1.0" xmlns="http://www.w3.org/2000/svg" viewBox="-0.000 -22.000 620.000 620.000"
 preserveAspectRatio="xMidYMid meet">
<metadata>
Created by potrace 1.16, written by Peter Selinger 2001-2019
</metadata>
<g transform="translate(0.000000,576.000000) scale(0.100000,-0.100000)"
fill="currentColor" stroke="none">
<path d="M4125 5449 c-34 -19 -676 -663 -687 -689 -8 -20 12 -105 108 -458
l118 -433 -259 -259 c-256 -256 -260 -260 -301 -260 -23 0 -66 -7 -95 -17 -52
-15 -88 -50 -827 -787 -425 -424 -782 -787 -792 -807 -45 -86 -42 -200 7 -296
l27 -54 -402 -402 c-444 -444 -432 -429 -376 -496 20 -24 34 -31 62 -31 35 0
57 20 443 406 245 245 409 402 413 395 13 -20 87 -52 137 -60 58 -9 133 1 186
25 42 19 1548 1512 1587 1574 25 39 46 112 46 162 0 30 24 57 254 287 l254
254 430 -117 c415 -114 430 -117 463 -103 20 9 169 151 368 350 l334 336 -6
38 c-3 24 -75 164 -191 373 l-187 334 16 64 c36 141 -37 278 -167 317 -64 19
-67 19 -145 -1 l-63 -16 -344 191 c-188 105 -354 191 -367 191 -13 0 -33 -5
-44 -11z m154 -965 c-255 -255 -467 -460 -470 -456 -4 4 -48 156 -97 337 l-90
330 280 281 280 281 280 -155 280 -155 -463 -463z m780 420 c34 -28 38 -51 17
-92 -8 -15 -379 -391 -825 -837 l-811 -810 -57 58 -58 57 805 806 c443 443
819 815 835 825 40 25 58 24 94 -7z m209 -609 l151 -270 -277 -277 c-152 -153
-283 -278 -291 -278 -13 0 -567 149 -640 172 l-34 10 464 464 c255 255 467
460 470 456 4 -4 75 -128 157 -277z m-2068 -1161 c70 -30 104 -84 116 -183 l7
-62 -121 -122 -122 -122 -137 138 -138 137 122 121 122 121 58 -7 c32 -4 74
-13 93 -21z m-345 -714 l-95 -95 -137 137 -138 138 95 95 95 95 137 -137 138
-138 -95 -95z m-322 -322 l-98 -98 -137 137 -138 138 97 97 98 98 137 -137
138 -138 -97 -97z m-310 -310 l-88 -88 -137 137 -138 138 87 87 88 88 137
-137 138 -138 -87 -87z m-353 -83 l135 -136 -96 -94 c-94 -93 -97 -95 -143
-95 -60 0 -88 15 -159 87 -103 105 -98 154 31 285 47 49 88 88 91 88 4 0 67
-61 141 -135z"/>
</g>
</svg>
